<svg width="28" height="23" viewBox="0 0 28 23" fill="none" xmlns="http://www.w3.org/2000/svg">
<rect x="0.5" y="2.5" width="27" height="20" rx="1.5" stroke="white"/>
<rect x="4" width="2" height="4" rx="1" fill="white"/>
<rect x="13" width="2" height="4" rx="1" fill="white"/>
<rect x="22" width="2" height="4" rx="1" fill="white"/>
<rect x="3" y="5" width="4" height="4" rx="1" fill="#FFFBFB"/>
<rect x="3" y="11" width="4" height="4" rx="1" fill="#FFFBFB"/>
<rect x="3" y="17" width="4" height="4" rx="1" fill="#FFFBFB"/>
<rect x="9" y="17" width="4" height="4" rx="1" fill="#FFFBFB"/>
<rect x="15" y="17" width="4" height="4" rx="1" fill="#FFFBFB"/>
<rect x="21" y="17" width="4" height="4" rx="1" fill="#FFFBFB"/>
<rect x="9" y="11" width="4" height="4" rx="1" fill="#D6CB6E"/>
<rect x="21" y="11" width="4" height="4" rx="1" fill="#FFFBFB"/>
<rect x="15" y="11" width="4" height="4" rx="1" fill="#FFFBFB"/>
<rect x="9" y="5" width="4" height="4" rx="1" fill="#FFFBFB"/>
<rect x="15" y="5" width="4" height="4" rx="1" fill="#FFFBFB"/>
<rect x="21" y="5" width="4" height="4" rx="1" fill="#FFFBFB"/>
<path d="M5.22412 5.85547V8H4.95312V6.19385L4.40674 6.39307V6.14844L5.18164 5.85547H5.22412Z" fill="#DCDCDC"/>
<path d="M23.7749 7.28223V7.50488H22.2339V7.34521L23.189 5.86719H23.4102L23.1729 6.29492L22.5415 7.28223H23.7749ZM23.4775 5.86719V8H23.2065V5.86719H23.4775Z" fill="#DCDCDC"/>
<path d="M23.6782 13.4229C23.6782 13.5527 23.6479 13.6631 23.5874 13.7539C23.5278 13.8438 23.4468 13.9121 23.3442 13.959C23.2427 14.0059 23.1279 14.0293 23 14.0293C22.8721 14.0293 22.7568 14.0059 22.6543 13.959C22.5518 13.9121 22.4707 13.8438 22.4111 13.7539C22.3516 13.6631 22.3218 13.5527 22.3218 13.4229C22.3218 13.3379 22.3379 13.2603 22.3701 13.1899C22.4033 13.1187 22.4497 13.0566 22.5093 13.0039C22.5698 12.9512 22.6411 12.9106 22.7231 12.8823C22.8062 12.853 22.8975 12.8384 22.9971 12.8384C23.1279 12.8384 23.2446 12.8638 23.3472 12.9146C23.4497 12.9644 23.5303 13.0332 23.5889 13.1211C23.6484 13.209 23.6782 13.3096 23.6782 13.4229ZM23.4058 13.417C23.4058 13.3379 23.3887 13.2681 23.3545 13.2075C23.3203 13.146 23.2725 13.0981 23.2109 13.064C23.1494 13.0298 23.0781 13.0127 22.9971 13.0127C22.9141 13.0127 22.8423 13.0298 22.7817 13.064C22.7222 13.0981 22.6758 13.146 22.6426 13.2075C22.6094 13.2681 22.5928 13.3379 22.5928 13.417C22.5928 13.499 22.6089 13.5693 22.6411 13.6279C22.6743 13.6855 22.7212 13.73 22.7817 13.7612C22.8433 13.7915 22.916 13.8066 23 13.8066C23.084 13.8066 23.1562 13.7915 23.2168 13.7612C23.2773 13.73 23.3237 13.6855 23.356 13.6279C23.3892 13.5693 23.4058 13.499 23.4058 13.417ZM23.6284 12.4224C23.6284 12.5259 23.6011 12.6191 23.5464 12.7021C23.4917 12.7852 23.417 12.8506 23.3223 12.8984C23.2275 12.9463 23.1201 12.9702 23 12.9702C22.8779 12.9702 22.769 12.9463 22.6733 12.8984C22.5786 12.8506 22.5044 12.7852 22.4507 12.7021C22.397 12.6191 22.3701 12.5259 22.3701 12.4224C22.3701 12.2983 22.397 12.1929 22.4507 12.106C22.5054 12.019 22.5801 11.9526 22.6748 11.9067C22.7695 11.8608 22.8774 11.8379 22.9985 11.8379C23.1206 11.8379 23.229 11.8608 23.3237 11.9067C23.4185 11.9526 23.4927 12.019 23.5464 12.106C23.6011 12.1929 23.6284 12.2983 23.6284 12.4224ZM23.3574 12.4268C23.3574 12.3555 23.3423 12.2925 23.312 12.2378C23.2817 12.1831 23.2397 12.1401 23.186 12.1089C23.1323 12.0767 23.0698 12.0605 22.9985 12.0605C22.9272 12.0605 22.8647 12.0757 22.811 12.106C22.7583 12.1353 22.7168 12.1772 22.6865 12.2319C22.6572 12.2866 22.6426 12.3516 22.6426 12.4268C22.6426 12.5 22.6572 12.564 22.6865 12.6187C22.7168 12.6733 22.7588 12.7158 22.8125 12.7461C22.8662 12.7764 22.9287 12.7915 23 12.7915C23.0713 12.7915 23.1333 12.7764 23.186 12.7461C23.2397 12.7158 23.2817 12.6733 23.312 12.6187C23.3423 12.564 23.3574 12.5 23.3574 12.4268Z" fill="#DCDCDC"/>
<path d="M17.7119 11.8672V12.0195L16.8286 14H16.543L17.4248 12.0898H16.2705V11.8672H17.7119Z" fill="#DCDCDC"/>
<path d="M11.3735 11.8643H11.397V12.0942H11.3735C11.23 12.0942 11.1099 12.1177 11.0132 12.1646C10.9165 12.2104 10.8398 12.2725 10.7832 12.3506C10.7266 12.4277 10.6855 12.5146 10.6602 12.6113C10.6357 12.708 10.6235 12.8062 10.6235 12.9058V13.2192C10.6235 13.314 10.6348 13.3979 10.6572 13.4712C10.6797 13.5435 10.7104 13.6045 10.7495 13.6543C10.7886 13.7041 10.8325 13.7417 10.8813 13.7671C10.9312 13.7925 10.9829 13.8052 11.0366 13.8052C11.0991 13.8052 11.1548 13.7935 11.2036 13.77C11.2524 13.7456 11.2935 13.7119 11.3267 13.6689C11.3608 13.625 11.3867 13.5732 11.4043 13.5137C11.4219 13.4541 11.4307 13.3887 11.4307 13.3174C11.4307 13.2539 11.4229 13.1929 11.4072 13.1343C11.3916 13.0747 11.3677 13.022 11.3354 12.9761C11.3032 12.9292 11.2627 12.8926 11.2139 12.8662C11.166 12.8389 11.1089 12.8252 11.0425 12.8252C10.9673 12.8252 10.897 12.8438 10.8315 12.8809C10.7671 12.917 10.7139 12.9648 10.6719 13.0244C10.6309 13.083 10.6074 13.147 10.6016 13.2163L10.458 13.2148C10.4717 13.1055 10.4971 13.0122 10.5342 12.9351C10.5723 12.8569 10.6191 12.7935 10.6748 12.7446C10.7314 12.6948 10.7944 12.6587 10.8638 12.6362C10.9341 12.6128 11.0083 12.6011 11.0864 12.6011C11.1929 12.6011 11.2847 12.6211 11.3618 12.6611C11.439 12.7012 11.5024 12.7549 11.5522 12.8223C11.6021 12.8887 11.6387 12.9639 11.6621 13.0479C11.6865 13.1309 11.6987 13.2163 11.6987 13.3042C11.6987 13.4048 11.6846 13.499 11.6562 13.5869C11.6279 13.6748 11.5854 13.752 11.5288 13.8184C11.4731 13.8848 11.4043 13.9365 11.3223 13.9736C11.2402 14.0107 11.145 14.0293 11.0366 14.0293C10.9214 14.0293 10.8208 14.0059 10.7349 13.959C10.6489 13.9111 10.5776 13.8477 10.521 13.7686C10.4644 13.6895 10.4219 13.6016 10.3936 13.5049C10.3652 13.4082 10.3511 13.3101 10.3511 13.2104V13.083C10.3511 12.9326 10.3662 12.7852 10.3965 12.6406C10.4268 12.4961 10.479 12.3652 10.5532 12.248C10.6284 12.1309 10.7324 12.0376 10.8652 11.9683C10.998 11.8989 11.1675 11.8643 11.3735 11.8643Z" fill="#DCDCDC"/>
<path d="M4.67627 12.9849L4.45947 12.9292L4.56641 11.8672H5.66064V12.1177H4.79639L4.73193 12.6978C4.771 12.6753 4.82031 12.6543 4.87988 12.6348C4.94043 12.6152 5.00977 12.6055 5.08789 12.6055C5.18652 12.6055 5.2749 12.6226 5.35303 12.6567C5.43115 12.6899 5.49756 12.7378 5.55225 12.8003C5.60791 12.8628 5.65039 12.938 5.67969 13.0259C5.70898 13.1138 5.72363 13.2119 5.72363 13.3203C5.72363 13.4229 5.70947 13.5171 5.68115 13.603C5.65381 13.689 5.6123 13.7642 5.55664 13.8286C5.50098 13.8921 5.43066 13.9414 5.3457 13.9766C5.26172 14.0117 5.1626 14.0293 5.04834 14.0293C4.9624 14.0293 4.88086 14.0176 4.80371 13.9941C4.72754 13.9697 4.65918 13.9331 4.59863 13.8843C4.53906 13.8345 4.49023 13.7729 4.45215 13.6997C4.41504 13.6255 4.3916 13.5386 4.38184 13.439H4.63965C4.65137 13.519 4.6748 13.5864 4.70996 13.6411C4.74512 13.6958 4.79102 13.7373 4.84766 13.7656C4.90527 13.793 4.97217 13.8066 5.04834 13.8066C5.11279 13.8066 5.16992 13.7954 5.21973 13.7729C5.26953 13.7505 5.31152 13.7183 5.3457 13.6763C5.37988 13.6343 5.40576 13.5835 5.42334 13.5239C5.44189 13.4644 5.45117 13.3975 5.45117 13.3232C5.45117 13.2559 5.44189 13.1934 5.42334 13.1357C5.40479 13.0781 5.37695 13.0278 5.33984 12.9849C5.30371 12.9419 5.25928 12.9087 5.20654 12.8853C5.15381 12.8608 5.09326 12.8486 5.0249 12.8486C4.93408 12.8486 4.86523 12.8608 4.81836 12.8853C4.77246 12.9097 4.7251 12.9429 4.67627 12.9849Z" fill="#DCDCDC"/>
<path d="M4.60303 19.7729H4.63086C4.78711 19.7729 4.91406 19.751 5.01172 19.707C5.10938 19.6631 5.18457 19.604 5.2373 19.5298C5.29004 19.4556 5.32617 19.3721 5.3457 19.2793C5.36523 19.1855 5.375 19.0894 5.375 18.9907V18.6641C5.375 18.5674 5.36377 18.4814 5.34131 18.4062C5.31982 18.3311 5.28955 18.2681 5.25049 18.2173C5.2124 18.1665 5.16895 18.1279 5.12012 18.1016C5.07129 18.0752 5.01953 18.062 4.96484 18.062C4.90234 18.062 4.84619 18.0747 4.79639 18.1001C4.74756 18.1245 4.70605 18.1592 4.67188 18.2041C4.63867 18.249 4.61328 18.3018 4.5957 18.3623C4.57812 18.4229 4.56934 18.4888 4.56934 18.5601C4.56934 18.6235 4.57715 18.6851 4.59277 18.7446C4.6084 18.8042 4.63232 18.8579 4.66455 18.9058C4.69678 18.9536 4.73682 18.9917 4.78467 19.02C4.8335 19.0474 4.89062 19.061 4.95605 19.061C5.0166 19.061 5.07324 19.0493 5.12598 19.0259C5.17969 19.0015 5.22705 18.9688 5.26807 18.9277C5.31006 18.8857 5.34326 18.8384 5.36768 18.7856C5.39307 18.7329 5.40771 18.6777 5.41162 18.6201H5.54053C5.54053 18.7012 5.52441 18.7812 5.49219 18.8604C5.46094 18.9385 5.41699 19.0098 5.36035 19.0742C5.30371 19.1387 5.2373 19.1904 5.16113 19.2295C5.08496 19.2676 5.00195 19.2866 4.91211 19.2866C4.80664 19.2866 4.71533 19.2661 4.63818 19.2251C4.56104 19.1841 4.49756 19.1294 4.44775 19.061C4.39893 18.9927 4.3623 18.9165 4.33789 18.8325C4.31445 18.7476 4.30273 18.6616 4.30273 18.5747C4.30273 18.4731 4.31689 18.3779 4.34521 18.2891C4.37354 18.2002 4.41553 18.1221 4.47119 18.0547C4.52686 17.9863 4.5957 17.9331 4.67773 17.895C4.76074 17.8569 4.85645 17.8379 4.96484 17.8379C5.08691 17.8379 5.19092 17.8623 5.27686 17.9111C5.36279 17.96 5.43262 18.0254 5.48633 18.1074C5.54102 18.1895 5.58105 18.2817 5.60645 18.3843C5.63184 18.4868 5.64453 18.5923 5.64453 18.7007V18.7988C5.64453 18.9092 5.63721 19.0215 5.62256 19.1357C5.60889 19.249 5.58203 19.3574 5.54199 19.4609C5.50293 19.5645 5.4458 19.6572 5.37061 19.7393C5.29541 19.8203 5.19727 19.8848 5.07617 19.9326C4.95605 19.9795 4.80762 20.0029 4.63086 20.0029H4.60303V19.7729Z" fill="#DCDCDC"/>
<path d="M10.3804 17.8555V20H10.1094V18.1938L9.56299 18.3931V18.1484L10.3379 17.8555H10.3804ZM12.5161 18.7637V19.0889C12.5161 19.2637 12.5005 19.4111 12.4692 19.5312C12.438 19.6514 12.3931 19.748 12.3345 19.8213C12.2759 19.8945 12.2051 19.9478 12.1221 19.981C12.04 20.0132 11.9473 20.0293 11.8438 20.0293C11.7617 20.0293 11.686 20.019 11.6167 19.9985C11.5474 19.978 11.4849 19.9453 11.4292 19.9004C11.3745 19.8545 11.3276 19.7949 11.2886 19.7217C11.2495 19.6484 11.2197 19.5596 11.1992 19.4551C11.1787 19.3506 11.1685 19.2285 11.1685 19.0889V18.7637C11.1685 18.5889 11.1841 18.4424 11.2153 18.3242C11.2476 18.2061 11.293 18.1113 11.3516 18.04C11.4102 17.9678 11.4805 17.916 11.5625 17.8848C11.6455 17.8535 11.7383 17.8379 11.8408 17.8379C11.9238 17.8379 12 17.8481 12.0693 17.8687C12.1396 17.8882 12.2021 17.9199 12.2568 17.9639C12.3115 18.0068 12.3579 18.0645 12.396 18.1367C12.4351 18.208 12.4648 18.2954 12.4854 18.3989C12.5059 18.5024 12.5161 18.624 12.5161 18.7637ZM12.2437 19.1328V18.7183C12.2437 18.6226 12.2378 18.5386 12.2261 18.4663C12.2153 18.3931 12.1992 18.3306 12.1777 18.2788C12.1562 18.2271 12.1289 18.1851 12.0957 18.1528C12.0635 18.1206 12.0259 18.0972 11.9829 18.0825C11.9409 18.0669 11.8936 18.0591 11.8408 18.0591C11.7764 18.0591 11.7192 18.0713 11.6694 18.0957C11.6196 18.1191 11.5776 18.1567 11.5435 18.2085C11.5103 18.2603 11.4849 18.3281 11.4673 18.4121C11.4497 18.4961 11.4409 18.5981 11.4409 18.7183V19.1328C11.4409 19.2285 11.4463 19.313 11.457 19.3862C11.4688 19.4595 11.4858 19.5229 11.5083 19.5767C11.5308 19.6294 11.5581 19.6729 11.5903 19.707C11.6226 19.7412 11.6597 19.7666 11.7017 19.7832C11.7446 19.7988 11.792 19.8066 11.8438 19.8066C11.9102 19.8066 11.9683 19.7939 12.0181 19.7686C12.0679 19.7432 12.1094 19.7036 12.1426 19.6499C12.1768 19.5952 12.2021 19.5254 12.2188 19.4404C12.2354 19.3545 12.2437 19.252 12.2437 19.1328Z" fill="#DCDCDC"/>
<path d="M16.3804 17.8555V20H16.1094V18.1938L15.563 18.3931V18.1484L16.3379 17.8555H16.3804ZM18.0679 17.8555V20H17.7969V18.1938L17.2505 18.3931V18.1484L18.0254 17.8555H18.0679Z" fill="#DCDCDC"/>
<path d="M22.3804 17.8555V20H22.1094V18.1938L21.563 18.3931V18.1484L22.3379 17.8555H22.3804ZM24.5747 19.7773V20H23.1787V19.8052L23.8774 19.0273C23.9634 18.9316 24.0298 18.8506 24.0767 18.7842C24.1245 18.7168 24.1577 18.6567 24.1763 18.604C24.1958 18.5503 24.2056 18.4956 24.2056 18.4399C24.2056 18.3696 24.1909 18.3062 24.1616 18.2495C24.1333 18.1919 24.0913 18.146 24.0356 18.1118C23.98 18.0776 23.9126 18.0605 23.8335 18.0605C23.7388 18.0605 23.6597 18.0791 23.5962 18.1162C23.5337 18.1523 23.4868 18.2031 23.4556 18.2686C23.4243 18.334 23.4087 18.4092 23.4087 18.4941H23.1377C23.1377 18.374 23.1641 18.2642 23.2168 18.1646C23.2695 18.0649 23.3477 17.9858 23.4512 17.9272C23.5547 17.8677 23.6821 17.8379 23.8335 17.8379C23.9683 17.8379 24.0835 17.8618 24.1792 17.9097C24.2749 17.9565 24.3481 18.0229 24.3989 18.1089C24.4507 18.1938 24.4766 18.2935 24.4766 18.4077C24.4766 18.4702 24.4658 18.5337 24.4443 18.5981C24.4238 18.6616 24.395 18.7251 24.3579 18.7886C24.3218 18.8521 24.2793 18.9146 24.2305 18.9761C24.1826 19.0376 24.1313 19.0981 24.0767 19.1577L23.5054 19.7773H24.5747Z" fill="#DCDCDC"/>
<path d="M16.729 6.80029H16.9224C17.0171 6.80029 17.0952 6.78467 17.1567 6.75342C17.2192 6.72119 17.2656 6.67773 17.2959 6.62305C17.3271 6.56738 17.3428 6.50488 17.3428 6.43555C17.3428 6.35352 17.3291 6.28467 17.3018 6.229C17.2744 6.17334 17.2334 6.13135 17.1787 6.10303C17.124 6.07471 17.0547 6.06055 16.9707 6.06055C16.8945 6.06055 16.8271 6.07568 16.7686 6.10596C16.7109 6.13525 16.6655 6.17725 16.6323 6.23193C16.6001 6.28662 16.584 6.35107 16.584 6.42529H16.313C16.313 6.31689 16.3403 6.21826 16.395 6.12939C16.4497 6.04053 16.5264 5.96973 16.625 5.91699C16.7246 5.86426 16.8398 5.83789 16.9707 5.83789C17.0996 5.83789 17.2124 5.86084 17.3091 5.90674C17.4058 5.95166 17.481 6.01904 17.5347 6.10889C17.5884 6.19775 17.6152 6.30859 17.6152 6.44141C17.6152 6.49512 17.6025 6.55273 17.5771 6.61426C17.5527 6.6748 17.5142 6.73145 17.4614 6.78418C17.4097 6.83691 17.3423 6.88037 17.2593 6.91455C17.1763 6.94775 17.0767 6.96436 16.9604 6.96436H16.729V6.80029ZM16.729 7.02295V6.86035H16.9604C17.0962 6.86035 17.2085 6.87646 17.2974 6.90869C17.3862 6.94092 17.4561 6.98389 17.5068 7.0376C17.5586 7.09131 17.5947 7.15039 17.6152 7.21484C17.6367 7.27832 17.6475 7.3418 17.6475 7.40527C17.6475 7.50488 17.6304 7.59326 17.5962 7.67041C17.563 7.74756 17.5156 7.81299 17.4541 7.8667C17.3936 7.92041 17.3223 7.96094 17.2402 7.98828C17.1582 8.01562 17.0688 8.0293 16.9722 8.0293C16.8794 8.0293 16.792 8.01611 16.71 7.98975C16.6289 7.96338 16.5571 7.92529 16.4946 7.87549C16.4321 7.82471 16.3833 7.7627 16.3481 7.68945C16.313 7.61523 16.2954 7.53076 16.2954 7.43604H16.5664C16.5664 7.51025 16.5825 7.5752 16.6147 7.63086C16.6479 7.68652 16.6948 7.72998 16.7554 7.76123C16.8169 7.7915 16.8892 7.80664 16.9722 7.80664C17.0552 7.80664 17.1265 7.79248 17.186 7.76416C17.2466 7.73486 17.293 7.69092 17.3252 7.63232C17.3584 7.57373 17.375 7.5 17.375 7.41113C17.375 7.32227 17.3564 7.24951 17.3193 7.19287C17.2822 7.13525 17.2295 7.09277 17.1611 7.06543C17.0938 7.03711 17.0142 7.02295 16.9224 7.02295H16.729Z" fill="#DCDCDC"/>
<path d="M11.731 7.77734V8H10.335V7.80518L11.0337 7.02734C11.1196 6.93164 11.186 6.85059 11.2329 6.78418C11.2808 6.7168 11.314 6.65674 11.3325 6.604C11.3521 6.55029 11.3618 6.49561 11.3618 6.43994C11.3618 6.36963 11.3472 6.30615 11.3179 6.24951C11.2896 6.19189 11.2476 6.146 11.1919 6.11182C11.1362 6.07764 11.0688 6.06055 10.9897 6.06055C10.895 6.06055 10.8159 6.0791 10.7524 6.11621C10.6899 6.15234 10.6431 6.20312 10.6118 6.26855C10.5806 6.33398 10.5649 6.40918 10.5649 6.49414H10.2939C10.2939 6.37402 10.3203 6.26416 10.373 6.16455C10.4258 6.06494 10.5039 5.98584 10.6074 5.92725C10.7109 5.86768 10.8384 5.83789 10.9897 5.83789C11.1245 5.83789 11.2397 5.86182 11.3354 5.90967C11.4312 5.95654 11.5044 6.02295 11.5552 6.10889C11.6069 6.19385 11.6328 6.29346 11.6328 6.40771C11.6328 6.47021 11.6221 6.53369 11.6006 6.59814C11.5801 6.66162 11.5513 6.7251 11.5142 6.78857C11.478 6.85205 11.4355 6.91455 11.3867 6.97607C11.3389 7.0376 11.2876 7.09814 11.2329 7.15771L10.6616 7.77734H11.731Z" fill="#DCDCDC"/>
</svg>
