<svg width="27" height="27" viewBox="0 0 27 27" fill="none" xmlns="http://www.w3.org/2000/svg">
<path d="M13.4892 2.25006C7.27924 2.25006 2.25049 7.29006 2.25049 13.5001C2.25049 19.7101 7.27924 24.7501 13.4892 24.7501C19.7105 24.7501 24.7505 19.7101 24.7505 13.5001C24.7505 7.29006 19.7105 2.25006 13.4892 2.25006ZM13.5005 22.5001C8.52799 22.5001 4.50049 18.4726 4.50049 13.5001C4.50049 8.52756 8.52799 4.50006 13.5005 4.50006C18.473 4.50006 22.5005 8.52756 22.5005 13.5001C22.5005 18.4726 18.473 22.5001 13.5005 22.5001Z" fill="black"/>
<path d="M14.0625 7.875H12.375V14.625L18.2812 18.1687L19.125 16.785L14.0625 13.7812V7.875Z" fill="black"/>
</svg>
