<svg width="16" height="16" viewBox="0 0 16 16" fill="none" xmlns="http://www.w3.org/2000/svg">
<path d="M7.5 2.46252H3C2.46957 2.46252 1.96086 2.67324 1.58579 3.04831C1.21071 3.42338 1 3.93209 1 4.46252V13.4625C1 13.993 1.21071 14.5017 1.58579 14.8767C1.96086 15.2518 2.46957 15.4625 3 15.4625H13C13.5304 15.4625 14.0391 15.2518 14.4142 14.8767C14.7893 14.5017 15 13.993 15 13.4625V8.96252" stroke="black" stroke-linecap="round" stroke-linejoin="round"/>
<path d="M13 3.46252L13.953 4.46252M15 1.42952C15.2666 1.70517 15.4142 2.07453 15.411 2.458C15.4078 2.84146 15.2541 3.20832 14.983 3.47952L8 10.4625L5 11.4625L6 8.46252L12.987 1.41652C13.2326 1.16899 13.5613 1.02135 13.9095 1.00214C14.2577 0.982931 14.6006 1.09352 14.872 1.31252L15 1.42952Z" stroke="black" stroke-linecap="round" stroke-linejoin="round"/>
</svg>
