<svg width="32" height="23" viewBox="0 0 32 23" fill="none" xmlns="http://www.w3.org/2000/svg">
<path d="M6 15H14V22C14 22.5523 13.5523 23 13 23H7C6.44772 23 6 22.5523 6 22V15Z" fill="white"/>
<path d="M18 15H26V22C26 22.5523 25.5523 23 25 23H19C18.4477 23 18 22.5523 18 22V15Z" fill="white"/>
<rect x="6" y="11" width="20" height="6" fill="white"/>
<path d="M15.3697 0.511749C15.737 0.213539 16.263 0.213539 16.6303 0.511749L27.6685 9.47366C28.3996 10.0672 27.9799 11.25 27.0382 11.25H4.96179C4.02012 11.25 3.60042 10.0672 4.33148 9.47366L15.3697 0.511749Z" fill="white"/>
<rect x="7" y="1" width="4" height="7" fill="white"/>
</svg>
