<svg width="28" height="27" viewBox="0 0 28 27" fill="none" xmlns="http://www.w3.org/2000/svg">
<path d="M0 0.5C0 0.223857 0.223858 0 0.5 0V0C0.776142 0 1 0.223858 1 0.5V27H0V0.5Z" fill="white"/>
<path d="M0 26H27.5C27.7761 26 28 26.2239 28 26.5V26.5C28 26.7761 27.7761 27 27.5 27H0V26Z" fill="#FEFAFA"/>
<path d="M4 18C4 17.4477 4.44772 17 5 17H8C8.55228 17 9 17.4477 9 18V26H4V18Z" fill="#DFDFDF"/>
<path d="M11 4C11 3.44772 11.4477 3 12 3H15C15.5523 3 16 3.44772 16 4V26H11V4Z" fill="#C0FDBF"/>
<path d="M18 12C18 11.4477 18.4477 11 19 11H22C22.5523 11 23 11.4477 23 12V26H18V12Z" fill="#F9EDB0"/>
</svg>
