<svg width="23" height="22" viewBox="0 0 23 22" fill="none" xmlns="http://www.w3.org/2000/svg">
<path d="M2.41096 19.589H4.09863L14.4959 9.19178L12.8082 7.50411L2.41096 17.9014V19.589ZM19.6493 7.44384L14.526 2.38082L16.2137 0.693151C16.6758 0.23105 17.2436 0 17.917 0C18.5897 0 19.1571 0.23105 19.6192 0.693151L21.3068 2.38082C21.7689 2.84292 22.01 3.40066 22.0301 4.05403C22.0502 4.70659 21.8292 5.26393 21.3671 5.72603L19.6493 7.44384ZM17.9014 9.22192L5.12329 22H0V16.8767L12.7781 4.09863L17.9014 9.22192ZM13.6521 8.34795L12.8082 7.50411L14.4959 9.19178L13.6521 8.34795Z" fill="black"/>
</svg>
