<svg width="25" height="25" viewBox="0 0 25 25" fill="none" xmlns="http://www.w3.org/2000/svg">
<path d="M22.0717 1.40344C18.7729 -1.14658 14.6995 0.0434271 12.5003 2.96178C10.3012 0.0434271 6.22775 -1.16075 2.92902 1.40344C1.1797 2.76345 0.0801185 5.05847 0.00514736 7.48099C-0.169785 12.9777 4.12856 17.3836 10.6885 24.1411L10.8135 24.2686C11.7631 25.2461 13.2251 25.2461 14.1747 24.2545L14.3121 24.1128C20.8721 17.3694 25.158 12.9635 24.9955 7.46682C24.9206 5.05847 23.821 2.76345 22.0717 1.40344ZM12.6253 22.0303L12.5003 22.1719L12.3754 22.0303C6.42768 15.9244 2.50419 11.8869 2.50419 7.79266C2.50419 4.9593 4.37847 2.83428 6.8775 2.83428C8.80176 2.83428 10.676 4.2368 11.3383 6.17765H13.6749C14.3246 4.2368 16.1989 2.83428 18.1232 2.83428C20.6222 2.83428 22.4965 4.9593 22.4965 7.79266C22.4965 11.8869 18.573 15.9244 12.6253 22.0303Z" fill="#6D6D6D"/>
</svg>
