<svg width="26" height="26" viewBox="0 0 26 26" fill="none" xmlns="http://www.w3.org/2000/svg">
<circle cx="13" cy="13" r="8.5" stroke="white" stroke-width="3"/>
<path d="M11.3905 0.875965C11.4531 0.375536 11.8785 0 12.3828 0L13.6172 0C14.1215 0 14.5469 0.375537 14.6095 0.875965L15 4H11L11.3905 0.875965Z" fill="white"/>
<path d="M22 11L25.124 11.3905C25.6245 11.4531 26 11.8785 26 12.3828V13.6172C26 14.1215 25.6245 14.5469 25.124 14.6095L22 15V11Z" fill="white"/>
<path d="M11 22H15L14.6095 25.124C14.5469 25.6245 14.1215 26 13.6172 26H12.3828C11.8785 26 11.4531 25.6245 11.3905 25.124L11 22Z" fill="white"/>
<path d="M3.01067 5.19233C2.71707 4.79427 2.75859 4.24138 3.10833 3.89164L3.89167 3.1083C4.24141 2.75856 4.7943 2.71704 5.19236 3.01064L7.65685 4.8284L4.82843 7.65683L3.01067 5.19233Z" fill="white"/>
<path d="M18 20.8284L20.8284 18L22.8724 20.2952C23.2247 20.6909 23.2073 21.2927 22.8327 21.6673L22.0606 22.4394C21.7322 22.7678 21.2209 22.8269 20.8263 22.582L18 20.8284Z" fill="white"/>
<path d="M3.07911 22.0791C2.74231 21.7423 2.68981 21.2147 2.95363 20.8181L4.82843 18L7.65685 20.8284L5.20242 22.9055C4.8054 23.2415 4.2171 23.2171 3.84932 22.8493L3.07911 22.0791Z" fill="white"/>
<path d="M18 4.82843L20.3033 3.04071C20.7014 2.73173 21.2672 2.76724 21.6236 3.12358L22.4117 3.91166C22.7526 4.2526 22.8017 4.78827 22.5284 5.18551L20.8284 7.65686L18 4.82843Z" fill="white"/>
<path d="M0.875965 14.6095C0.375536 14.5469 0 14.1215 0 13.6172L0 12.3828C0 11.8785 0.375537 11.4531 0.875965 11.3905L4 11L4 15L0.875965 14.6095Z" fill="white"/>
</svg>
