<svg width="28" height="25" viewBox="0 0 28 25" fill="none" xmlns="http://www.w3.org/2000/svg">
<path d="M26.2009 12.5C26.2009 18.7458 20.6548 23.9583 13.6213 23.9583C6.5877 23.9583 1.04167 18.7458 1.04167 12.5C1.04167 6.25417 6.5877 1.04167 13.6213 1.04167C20.6548 1.04167 26.2009 6.25417 26.2009 12.5Z" stroke="black" stroke-width="2.08333"/>
<path d="M20.6928 8.43516C20.7446 8.07141 20.4664 7.73096 20.0713 7.67472L13.6342 6.75838C13.2392 6.70214 12.877 6.95143 12.8252 7.31518C12.7734 7.67892 13.0516 8.01938 13.4467 8.07561L19.1686 8.89015L18.4185 14.1591C18.3668 14.5228 18.645 14.8633 19.04 14.9195C19.435 14.9758 19.7972 14.7265 19.849 14.3627L20.6928 8.43516ZM5.8877 18.8711L20.417 8.87105L19.5381 7.79563L5.00879 17.7956L5.8877 18.8711Z" fill="black"/>
</svg>
