<svg width="29" height="20" viewBox="0 0 29 20" fill="none" xmlns="http://www.w3.org/2000/svg">
<path fill-rule="evenodd" clip-rule="evenodd" d="M1.05263 0C0.773456 0 0.505715 0.110902 0.308309 0.308309C0.110902 0.505716 0 0.773456 0 1.05263V3.15789C0 3.43707 0.110902 3.70481 0.308309 3.90222C0.505715 4.09962 0.773456 4.21053 1.05263 4.21053H3.15789C3.43707 4.21053 3.70481 4.09962 3.90222 3.90222C4.09962 3.70481 4.21053 3.43707 4.21053 3.15789V1.05263C4.21053 0.773456 4.09962 0.505716 3.90222 0.308309C3.70481 0.110902 3.43707 0 3.15789 0H1.05263ZM3.15789 1.05263H1.05263V3.15789H3.15789V1.05263Z" fill="black"/>
<path d="M7.27295 2.10527C7.27295 1.8261 7.38385 1.55836 7.58126 1.36095C7.77866 1.16354 8.04641 1.05264 8.32558 1.05264H27.2729C27.5521 1.05264 27.8199 1.16354 28.0173 1.36095C28.2147 1.55836 28.3256 1.8261 28.3256 2.10527C28.3256 2.38445 28.2147 2.65219 28.0173 2.8496C27.8199 3.047 27.5521 3.15791 27.2729 3.15791H8.32558C8.04641 3.15791 7.77866 3.047 7.58126 2.8496C7.38385 2.65219 7.27295 2.38445 7.27295 2.10527ZM8.32558 9.4737C8.04641 9.4737 7.77866 9.5846 7.58126 9.782C7.38385 9.97941 7.27295 10.2472 7.27295 10.5263C7.27295 10.8055 7.38385 11.0732 7.58126 11.2707C7.77866 11.4681 8.04641 11.579 8.32558 11.579H27.2729C27.5521 11.579 27.8199 11.4681 28.0173 11.2707C28.2147 11.0732 28.3256 10.8055 28.3256 10.5263C28.3256 10.2472 28.2147 9.97941 28.0173 9.782C27.8199 9.5846 27.5521 9.4737 27.2729 9.4737H8.32558ZM8.32558 17.8947C8.04641 17.8947 7.77866 18.0056 7.58126 18.2031C7.38385 18.4005 7.27295 18.6682 7.27295 18.9474C7.27295 19.2266 7.38385 19.4943 7.58126 19.6917C7.77866 19.8891 8.04641 20 8.32558 20H27.2729C27.5521 20 27.8199 19.8891 28.0173 19.6917C28.2147 19.4943 28.3256 19.2266 28.3256 18.9474C28.3256 18.6682 28.2147 18.4005 28.0173 18.2031C27.8199 18.0056 27.5521 17.8947 27.2729 17.8947H8.32558Z" fill="black"/>
<path fill-rule="evenodd" clip-rule="evenodd" d="M0 8.3254C0 8.04622 0.110902 7.77848 0.308309 7.58107C0.505715 7.38367 0.773456 7.27277 1.05263 7.27277H3.15789C3.43707 7.27277 3.70481 7.38367 3.90222 7.58107C4.09962 7.77848 4.21053 8.04622 4.21053 8.3254V10.4307C4.21053 10.7098 4.09962 10.9776 3.90222 11.175C3.70481 11.3724 3.43707 11.4833 3.15789 11.4833H1.05263C0.773456 11.4833 0.505715 11.3724 0.308309 11.175C0.110902 10.9776 0 10.7098 0 10.4307V8.3254ZM1.05263 8.3254H3.15789V10.4307H1.05263V8.3254ZM1.05263 15.6938C0.773456 15.6938 0.505715 15.8047 0.308309 16.0021C0.110902 16.1995 0 16.4673 0 16.7465V18.8517C0 19.1309 0.110902 19.3986 0.308309 19.596C0.505715 19.7934 0.773456 19.9043 1.05263 19.9043H3.15789C3.43707 19.9043 3.70481 19.7934 3.90222 19.596C4.09962 19.3986 4.21053 19.1309 4.21053 18.8517V16.7465C4.21053 16.4673 4.09962 16.1995 3.90222 16.0021C3.70481 15.8047 3.43707 15.6938 3.15789 15.6938H1.05263ZM3.15789 16.7465H1.05263V18.8517H3.15789V16.7465Z" fill="black"/>
</svg>
