<svg width="24" height="24" viewBox="0 0 24 24" fill="none" xmlns="http://www.w3.org/2000/svg">
<path d="M2.4 24C1.74 24 1.1752 23.7652 0.7056 23.2956C0.2352 22.8252 0 22.26 0 21.6V2.4C0 1.74 0.2352 1.1748 0.7056 0.7044C1.1752 0.2348 1.74 0 2.4 0H12L19.2 7.2V12H16.8V8.4H10.8V2.4H2.4V21.6H9.6V24H2.4ZM2.4 21.6V2.4V21.6ZM17.16 15.03L18.45 16.32L13.8 20.94V22.2H15.06L19.71 17.58L20.97 18.84L15.81 24H12V20.19L17.16 15.03ZM20.97 18.84L17.16 15.03L18.9 13.29C19.12 13.07 19.4 12.96 19.74 12.96C20.08 12.96 20.36 13.07 20.58 13.29L22.71 15.42C22.93 15.64 23.04 15.92 23.04 16.26C23.04 16.6 22.93 16.88 22.71 17.1L20.97 18.84Z" fill="black"/>
</svg>
