<svg width="26" height="26" viewBox="0 0 26 26" fill="none" xmlns="http://www.w3.org/2000/svg">
<circle cx="13" cy="13" r="12.5" stroke="white"/>
<circle cx="25" cy="13" r="1" fill="#FAFAFA"/>
<circle cx="1" cy="13" r="1" fill="#FAFAFA"/>
<circle cx="13" cy="1" r="1" fill="#FAFAFA"/>
<circle cx="13" cy="25" r="1" fill="#FAFAFA"/>
<rect x="16.6351" y="3.37152" width="1" height="10.7826" rx="0.5" transform="rotate(24 16.6351 3.37152)" fill="#FEFEFE"/>
<rect x="20.8108" y="15.1796" width="1" height="8.4315" rx="0.5" transform="rotate(108.5 20.8108 15.1796)" fill="white"/>
<circle cx="13" cy="13" r="1" fill="white"/>
<path d="M13.312 20.6289V21H10.9854V20.6753L12.1499 19.3789C12.2931 19.2194 12.4038 19.0843 12.4819 18.9736C12.5617 18.8613 12.617 18.7612 12.6479 18.6733C12.6805 18.5838 12.6968 18.4927 12.6968 18.3999C12.6968 18.2827 12.6724 18.1769 12.6235 18.0825C12.5763 17.9865 12.5063 17.91 12.4136 17.853C12.3208 17.7961 12.2085 17.7676 12.0767 17.7676C11.9188 17.7676 11.7869 17.7985 11.6812 17.8604C11.577 17.9206 11.4989 18.0052 11.4468 18.1143C11.3947 18.2233 11.3687 18.3486 11.3687 18.4902H10.917C10.917 18.29 10.9609 18.1069 11.0488 17.9409C11.1367 17.7749 11.2669 17.6431 11.4395 17.5454C11.612 17.4461 11.8244 17.3965 12.0767 17.3965C12.3013 17.3965 12.4933 17.4364 12.6528 17.5161C12.8123 17.5942 12.9344 17.7049 13.019 17.8481C13.1053 17.9897 13.1484 18.1558 13.1484 18.3462C13.1484 18.4504 13.1305 18.5562 13.0947 18.6636C13.0605 18.7694 13.0125 18.8752 12.9507 18.981C12.8905 19.0868 12.8197 19.1909 12.7383 19.2935C12.6585 19.396 12.5731 19.4969 12.4819 19.5962L11.5298 20.6289H13.312ZM14.3667 19.3081L14.0054 19.2153L14.1836 17.4453H16.0073V17.8628H14.5669L14.4595 18.8296C14.5246 18.7922 14.6068 18.7572 14.7061 18.7246C14.807 18.6921 14.9225 18.6758 15.0527 18.6758C15.2171 18.6758 15.3644 18.7043 15.4946 18.7612C15.6248 18.8166 15.7355 18.8963 15.8267 19.0005C15.9194 19.1047 15.9902 19.23 16.0391 19.3765C16.0879 19.5229 16.1123 19.6865 16.1123 19.8672C16.1123 20.0381 16.0887 20.1951 16.0415 20.3384C15.9959 20.4816 15.9268 20.6069 15.834 20.7144C15.7412 20.8201 15.624 20.9023 15.4824 20.9609C15.3424 21.0195 15.1772 21.0488 14.9868 21.0488C14.8436 21.0488 14.7077 21.0293 14.5791 20.9902C14.4521 20.9495 14.3382 20.8885 14.2373 20.8071C14.138 20.7241 14.0566 20.6216 13.9932 20.4995C13.9313 20.3758 13.8923 20.231 13.876 20.0649H14.3057C14.3252 20.1984 14.3643 20.3107 14.4229 20.4019C14.4814 20.493 14.5579 20.5622 14.6523 20.6094C14.7484 20.6549 14.8599 20.6777 14.9868 20.6777C15.0942 20.6777 15.1895 20.659 15.2725 20.6216C15.3555 20.5841 15.4255 20.5304 15.4824 20.4604C15.5394 20.3905 15.5825 20.3058 15.6118 20.2065C15.6427 20.1073 15.6582 19.9958 15.6582 19.8721C15.6582 19.7598 15.6427 19.6556 15.6118 19.5596C15.5809 19.4635 15.5345 19.3797 15.4727 19.3081C15.4124 19.2365 15.3384 19.1812 15.2505 19.1421C15.1626 19.1014 15.0617 19.0811 14.9478 19.0811C14.7964 19.0811 14.6816 19.1014 14.6035 19.1421C14.527 19.1828 14.4481 19.2381 14.3667 19.3081Z" fill="white"/>
</svg>
